<svg id="RingTwice_logo" data-name="RingTwice logo" xmlns="http://www.w3.org/2000/svg" viewBox="0 0 404.39906 869.40746"><defs><style>.cls-1{fill:#ff9800;}.cls-2{fill:#ff478f;}</style></defs><path id="colon_orange" data-name="colon orange" class="cls-1" d="M247.87949,375.6246C344.25836,354.78553,406.65062,256.50331,391.9776,161.515,378.89992,76.85432,328.74164,34.9604,264.39441,10.63732s-135.47672-5.336-186.6095,40.68242C1.01548,120.41089-23.80273,236.97441,42.86716,320.20392,93.66454,383.61843,174.41366,391.50883,247.87949,375.6246Z"/><path id="colon_pink" data-name="colon pink" class="cls-2" d="M155.27122,489.32653c-62.383,14.17783-119.08564,54.3001-143.84177,115.3956-23.86643,58.9-8.26594,120.94313,27.451,173.50849s97.301,91.1751,160.85262,91.17684c170.90731.00469,249.30636-167.04027,178.85607-294.118-34.69246-62.578-109.21558-93.71589-179.54491-91.57233A229.32844,229.32844,0,0,0,155.27122,489.32653Z"/></svg>