<svg id="RingTwice_logo" data-name="RingTwice logo" xmlns="http://www.w3.org/2000/svg" viewBox="0 0 1020.70138 341.47236"><defs><style>.cls-1{fill:#171717;}.cls-2{fill:#ff9800;}.cls-3{fill:#ff478f;}</style></defs><path id="RingTwice" class="cls-1" d="M88.12485,88.12485h49.97608c23.45654,0,41.81543,13.25684,41.81543,37.73438,0,16.52343-9.17872,32.63671-34.67725,35.69824,19.37842.6123,28.55859,7.9541,33.65771,21.416l11.21924,29.57813H158.49887l-13.25976-36.71484c-3.05859-8.36426-7.13818-10.20118-13.2583-10.20118H116.68344v46.916H88.12485Zm45.89649,53.0332c10.19824,0,15.29882-5.09765,15.29882-14.27636,0-9.18164-5.10058-14.2793-15.29882-14.2793h-17.3379v28.55566ZM225.826,212.55161H199.308V126.88169H225.826Zm42.63575-50.99414c3.05859-27.74121,14.89013-36.71778,26.5166-36.71778,15.50244,0,24.47754,9.58887,24.47754,26.51661v61.19531H292.9393V158.49594c0-8.15917-3.06-11.21777-8.15918-11.21777-13.46337,0-16.31835,27.74121-16.31835,61.19531v4.07813H241.9437V126.88169h24.47754Zm147.89355,60.17285c0,18.35742-13.2583,31.61719-49.97461,31.61719-32.63672,0-39.77637-8.15918-39.77637-18.35742,0-8.56934,8.3628-14.89161,21.41748-15.70606-9.17871-2.24414-14.27783-7.75195-14.27783-16.93066,0-7.957,6.731-15.50391,18.15381-19.17481-11.62646-4.2832-19.17334-13.46191-19.17334-27.74121,0-20.60156,15.70606-30.59766,36.71484-30.59766a48.1846,48.1846,0,0,1,14.68653,2.042l28.1499-2.042v18.36036h-9.38232a23.43553,23.43553,0,0,1,3.26367,12.2373c0,20.60156-15.70752,30.59766-36.71778,30.59766a58.35627,58.35627,0,0,1-13.66552-1.63184c-2.44776,1.834-3.67237,3.876-3.67237,5.71,0,2.85645,1.63184,5.10059,7.13965,5.10059h25.49707C400.037,195.21372,416.35532,201.33384,416.35532,221.73032Zm-26.5166,3.06152c0-4.08105-4.08106-5.10058-9.18018-5.10058H351.08188c-.81592.81445-2.03906,2.65136-2.03906,6.12011,0,5.915,6.11865,7.13672,17.33789,7.13672C385.75766,232.94809,389.83872,230.09458,389.83872,224.79184Zm-31.61719-69.35449c0,8.15918,5.30274,11.21777,11.21777,11.21777,5.91651,0,11.21924-3.05859,11.21924-11.21777s-5.30273-11.21777-11.21924-11.21777C363.52427,144.21958,358.22153,147.27817,358.22153,155.43735Zm99.53613-42.835H425.12094V88.12485h93.83057v24.47754H486.31479v99.94922H457.75766Zm191.751,14.2793-22.02978,85.66992H589.743l-8.56788-40.7959-8.77,40.7959h-37.7373l-21.82617-85.66992h28.55859l12.646,63.23144,12.85107-63.23144H596.474l12.646,63.23144L621.971,126.88169Zm34.6875,85.66992h-26.5166V126.88169h26.5166ZM753.35,179.91489h24.47754c0,20.39648-16.11475,34.67578-38.75537,34.67578-27.94629,0-41.8169-19.17187-41.8169-44.874s15.91114-44.877,43.856-44.877c22.64209,0,36.71631,14.2793,36.71631,34.67872H753.35c0-8.36426-4.89551-14.2793-14.27783-14.2793-8.97657,0-15.29883,6.52734-15.29883,24.47754s6.32226,24.47754,15.29883,24.47754C748.45444,194.19419,753.35,188.27915,753.35,179.91489Zm115.05176-4.07812H813.53159c1.01953,12.8496,5.50781,19.37695,15.09521,19.37695,11.42286,0,14.27784-5.915,15.29737-11.2207h24.47754c-1.01953,13.25976-12.23877,30.59765-40.7959,30.59765-27.94483,0-40.7959-19.17187-40.7959-44.874s15.29883-44.877,42.83643-44.877c23.66162,0,38.75537,14.2793,38.75537,42.835Zm-26.5166-16.31836c0-9.38379-3.876-15.29883-13.25831-15.29883-7.13964,0-12.64746,4.07812-14.48291,15.29883Z"/><path id="colon_orange" data-name="colon orange" class="cls-2" d="M916.7114,163.26848c9.76915-2.11229,16.09335-12.07437,14.60607-21.70257-1.32558-8.58137-6.40973-12.82782-12.93209-15.29326s-13.73218-.54086-18.9151,4.12365c-7.7815,7.00322-10.29713,18.81833-3.53934,27.25463C901.07987,164.07875,909.26476,164.87854,916.7114,163.26848Z"/><path id="colon_pink" data-name="colon pink" class="cls-3" d="M907.32444,174.79353c-6.32327,1.4371-12.07075,5.504-14.58008,11.69673-2.41915,5.97022-.83786,12.259,2.78248,17.58716s9.86262,9.24169,16.30434,9.24186c17.3235.00048,25.27018-16.93153,18.1292-29.81237-3.51649-6.343-11.0703-9.49923-18.199-9.28195A23.24582,23.24582,0,0,0,907.32444,174.79353Z"/></svg>